<?xml version="1.0" encoding="utf-8"?>
<!-- Generator: Adobe Illustrator 25.3.0, SVG Export Plug-In . SVG Version: 6.00 Build 0)  -->
<svg version="1.1" id="Capa_1" xmlns="http://www.w3.org/2000/svg" xmlns:xlink="http://www.w3.org/1999/xlink" x="0px" y="0px"
	 viewBox="0 0 120.1 125.6" style="enable-background:new 0 0 120.1 125.6;" xml:space="preserve">
<style type="text/css">
	.st0{fill-rule:evenodd;clip-rule:evenodd;fill:#DBDBDB;}
</style>
<path class="st0" d="M45.8,0c12.6,0,24.1,5.1,32.4,13.4c8.3,8.3,13.4,19.7,13.4,32.4c0,12.6-5.1,24.1-13.4,32.4
	c-8.3,8.3-19.7,13.4-32.4,13.4c-12.6,0-24.1-5.1-32.4-13.4C5.1,69.9,0,58.4,0,45.8c0-12.6,5.1-24.1,13.4-32.4
	C21.7,5.1,33.1,0,45.8,0L45.8,0z M71.6,20C65,13.4,55.9,9.3,45.8,9.3C35.7,9.3,26.6,13.4,20,20C13.4,26.6,9.3,35.7,9.3,45.8
	C9.3,55.9,13.4,65,20,71.6c6.6,6.6,15.7,10.7,25.8,10.7c10.1,0,19.2-4.1,25.8-10.7c6.6-6.6,10.7-15.7,10.7-25.8
	C82.3,35.7,78.2,26.6,71.6,20z"/>
<path class="st0" d="M82.8,79.5l35.5,35.5c2.4,2.4,2.4,6.3,0,8.8c-2.4,2.4-6.3,2.4-8.8,0L73.3,87.6c2.8-1.8,5.4-3.9,7.7-6.2
	C81.6,80.8,82.2,80.2,82.8,79.5z"/>
</svg>
