<?xml version="1.0" encoding="utf-8"?>
<!-- Generator: Adobe Illustrator 25.3.0, SVG Export Plug-In . SVG Version: 6.00 Build 0)  -->
<svg version="1.1" id="Capa_1" xmlns="http://www.w3.org/2000/svg" xmlns:xlink="http://www.w3.org/1999/xlink" x="0px" y="0px"
	 viewBox="0 0 260.4 260.6" style="enable-background:new 0 0 260.4 260.6;" xml:space="preserve">
<style type="text/css">
	.st0{fill-rule:evenodd;clip-rule:evenodd;fill:#DBDBDB;}
	.st1{fill:#DBDBDB;}
</style>
<path class="st0" d="M130.2,0L130.2,0c71.6,0,130.2,58.6,130.2,130.2l0,0c0,71.6-58.6,130.2-130.2,130.2l0,0
	C58.6,260.4,0,201.8,0,130.2l0,0C0,58.6,58.6,0,130.2,0L130.2,0z M130.2,14.4c-63.7,0-115.8,52.1-115.8,115.8v0
	c0,63.7,52.1,115.8,115.8,115.8h0c63.7,0,115.8-52.1,115.8-115.8v0C246,66.5,193.9,14.4,130.2,14.4L130.2,14.4z"/>
<path class="st1" d="M147.5,113.6v76.2c0,4.8-1.9,9.1-5.1,12.2c-3.1,3.1-7.5,5.1-12.2,5.1h0c-4.8,0-9.1-1.9-12.2-5.1
	c-3.1-3.1-5.1-7.5-5.1-12.2v-76.2c0-4.8,1.9-9.1,5.1-12.2c3.1-3.1,7.5-5.1,12.2-5.1h0c4.8,0,9.1,1.9,12.2,5.1
	C145.6,104.5,147.5,108.8,147.5,113.6z"/>
<path class="st1" d="M130.2,53.3c4.9,0,9.4,2,12.6,5.2c3.2,3.2,5.2,7.7,5.2,12.6c0,4.9-2,9.4-5.2,12.6c-3.2,3.2-7.7,5.2-12.6,5.2
	c-4.9,0-9.4-2-12.6-5.2c-3.2-3.2-5.2-7.7-5.2-12.6c0-4.9,2-9.4,5.2-12.6C120.9,55.3,125.3,53.3,130.2,53.3z"/>
</svg>
