<?xml version="1.0" encoding="utf-8"?>
<!-- Generator: Adobe Illustrator 25.3.0, SVG Export Plug-In . SVG Version: 6.00 Build 0)  -->
<svg version="1.1" id="Capa_1" xmlns="http://www.w3.org/2000/svg" xmlns:xlink="http://www.w3.org/1999/xlink" x="0px" y="0px"
	 viewBox="0 0 1030 281" style="enable-background:new 0 0 1030 281;" xml:space="preserve">
<style type="text/css">
	.st0{fill:#9E9E9E;}
	.st1{fill:#231F20;}
</style>
<path class="st0" d="M1030.2,280.7V29.8c0-16.4-13.3-29.8-29.8-29.8h-970C14,0,0.7,13.3,0.7,29.8v250.9H1030.2z"/>
<g>
	<g>
		<path class="st1" d="M234.5,161.5l-10.4,31.4h-13.3l33.9-99.8h15.5l34.1,99.8h-13.8l-10.7-31.4H234.5z M267.3,151.5l-9.8-28.7
			c-2.2-6.5-3.7-12.4-5.2-18.2H252c-1.5,5.9-3.1,12-5,18.1l-9.8,28.9H267.3z"/>
		<path class="st1" d="M308.1,87.8h13v105.1h-13V87.8z"/>
		<path class="st1" d="M342.5,192.9c0.3-4.9,0.6-12.1,0.6-18.5V87.8h12.9v45h0.3c4.6-8,12.9-13.2,24.4-13.2
			c17.8,0,30.4,14.8,30.2,36.6c0,25.6-16.1,38.3-32.1,38.3c-10.4,0-18.7-4-24-13.5h-0.4l-0.6,11.8H342.5z M355.9,164.2
			c0,1.6,0.3,3.3,0.6,4.7c2.5,9,10.1,15.2,19.5,15.2c13.6,0,21.8-11.1,21.8-27.5c0-14.4-7.4-26.6-21.3-26.6c-8.9,0-17.2,6.1-19.8,16
			c-0.3,1.5-0.7,3.3-0.7,5.3V164.2z"/>
		<path class="st1" d="M467,192.9l-1-9h-0.4c-4,5.6-11.7,10.7-21.9,10.7c-14.5,0-21.9-10.2-21.9-20.6c0-17.3,15.4-26.8,43.1-26.6
			v-1.5c0-5.9-1.6-16.6-16.3-16.6c-6.7,0-13.6,2.1-18.7,5.3l-3-8.6c5.9-3.8,14.5-6.4,23.5-6.4c21.9,0,27.2,15,27.2,29.3v26.8
			c0,6.2,0.3,12.3,1.2,17.2H467z M465.1,156.3c-14.2-0.3-30.4,2.2-30.4,16.1c0,8.4,5.6,12.4,12.3,12.4c9.3,0,15.2-5.9,17.3-12
			c0.4-1.3,0.7-2.8,0.7-4.1V156.3z"/>
		<path class="st1" d="M498.7,143.6c0-8.4-0.1-15.7-0.6-22.4h11.4l0.4,14.1h0.6c3.3-9.6,11.1-15.7,19.8-15.7c1.5,0,2.5,0.1,3.7,0.4
			v12.3c-1.3-0.3-2.7-0.4-4.4-0.4c-9.2,0-15.7,7-17.5,16.7c-0.3,1.8-0.6,3.8-0.6,6.1v38.2h-12.9V143.6z"/>
		<path class="st1" d="M586,192.9l-1-9h-0.4c-4,5.6-11.7,10.7-21.9,10.7c-14.5,0-21.9-10.2-21.9-20.6c0-17.3,15.4-26.8,43.1-26.6
			v-1.5c0-5.9-1.6-16.6-16.3-16.6c-6.7,0-13.6,2.1-18.7,5.3l-3-8.6c5.9-3.8,14.5-6.4,23.5-6.4c21.9,0,27.2,15,27.2,29.3v26.8
			c0,6.2,0.3,12.3,1.2,17.2H586z M584.1,156.3c-14.2-0.3-30.4,2.2-30.4,16.1c0,8.4,5.6,12.4,12.3,12.4c9.3,0,15.2-5.9,17.3-12
			c0.4-1.3,0.7-2.8,0.7-4.1V156.3z"/>
		<path class="st1" d="M617.7,140.6c0-7.4-0.1-13.5-0.6-19.4h11.5l0.7,11.8h0.3c3.6-6.8,11.8-13.5,23.7-13.5
			c9.9,0,25.3,5.9,25.3,30.5v42.8h-13v-41.3c0-11.5-4.3-21.2-16.6-21.2c-8.6,0-15.2,6.1-17.5,13.3c-0.6,1.6-0.9,3.8-0.9,6.1v43.1
			h-13V140.6z"/>
		<path class="st1" d="M707.1,159.4c0.3,17.6,11.5,24.9,24.6,24.9c9.3,0,15-1.6,19.8-3.7l2.2,9.3c-4.6,2.1-12.4,4.4-23.8,4.4
			c-22.1,0-35.2-14.5-35.2-36.1s12.7-38.6,33.6-38.6c23.4,0,29.6,20.6,29.6,33.8c0,2.7-0.3,4.7-0.4,6.1H707.1z M745.3,150.1
			c0.1-8.3-3.4-21.2-18.1-21.2c-13.2,0-19,12.1-20,21.2H745.3z"/>
		<path class="st1" d="M772.3,179.6c3.8,2.5,10.7,5.2,17.2,5.2c9.5,0,13.9-4.7,13.9-10.7c0-6.2-3.7-9.6-13.3-13.2
			c-12.9-4.6-19-11.7-19-20.3c0-11.5,9.3-21,24.7-21c7.3,0,13.6,2.1,17.6,4.4l-3.3,9.5c-2.8-1.8-8-4.1-14.7-4.1
			c-7.7,0-12,4.4-12,9.8c0,5.9,4.3,8.6,13.6,12.1c12.4,4.7,18.8,11,18.8,21.6c0,12.6-9.8,21.5-26.8,21.5c-7.8,0-15.1-1.9-20.1-4.9
			L772.3,179.6z"/>
	</g>
</g>
</svg>
