<?xml version="1.0" encoding="utf-8"?>
<!-- Generator: Adobe Illustrator 25.3.0, SVG Export Plug-In . SVG Version: 6.00 Build 0)  -->
<svg version="1.1" id="Capa_1" xmlns="http://www.w3.org/2000/svg" xmlns:xlink="http://www.w3.org/1999/xlink" x="0px" y="0px"
	 viewBox="0 0 1030 281" style="enable-background:new 0 0 1030 281;" xml:space="preserve">
<style type="text/css">
	.st0{fill:#DBDBDB;}
</style>
<g>
	<path class="st0" d="M350.4,189.6c-4.7,2.4-14.2,4.7-26.4,4.7c-28.1,0-49.3-17.8-49.3-50.5c0-31.2,21.2-52.4,52.1-52.4
		c12.4,0,20.3,2.7,23.7,4.4l-3.1,10.5c-4.9-2.4-11.8-4.1-20.1-4.1c-23.4,0-38.9,15-38.9,41.2c0,24.4,14.1,40.1,38.3,40.1
		c7.8,0,15.8-1.6,21-4.1L350.4,189.6z"/>
	<path class="st0" d="M366.1,87.8h13v105.1h-13V87.8z"/>
	<path class="st0" d="M415.6,101.1c0.1,4.4-3.1,8-8.3,8c-4.6,0-7.8-3.6-7.8-8c0-4.6,3.4-8.1,8.1-8.1
		C412.5,93,415.6,96.5,415.6,101.1z M401.1,192.9v-71.7h13v71.7H401.1z"/>
	<path class="st0" d="M443,159.4c0.3,17.6,11.5,24.9,24.6,24.9c9.3,0,15-1.6,19.8-3.7l2.2,9.3c-4.6,2.1-12.4,4.4-23.8,4.4
		c-22.1,0-35.2-14.5-35.2-36.1s12.7-38.6,33.6-38.6c23.4,0,29.6,20.6,29.6,33.8c0,2.7-0.3,4.7-0.4,6.1H443z M481.2,150.1
		c0.1-8.3-3.4-21.2-18.1-21.2c-13.2,0-19,12.1-20,21.2H481.2z"/>
	<path class="st0" d="M509.9,140.6c0-7.4-0.1-13.5-0.6-19.4h11.5l0.7,11.8h0.3c3.6-6.8,11.8-13.5,23.7-13.5
		c9.9,0,25.3,5.9,25.3,30.5v42.8h-13v-41.3c0-11.5-4.3-21.2-16.6-21.2c-8.6,0-15.2,6.1-17.5,13.3c-0.6,1.6-0.9,3.8-0.9,6.1v43.1h-13
		V140.6z"/>
	<path class="st0" d="M607.2,100.7v20.6h18.7v9.9h-18.7v38.6c0,8.9,2.5,13.9,9.8,13.9c3.4,0,5.9-0.4,7.6-0.9l0.6,9.8
		c-2.5,1-6.5,1.8-11.5,1.8c-6.1,0-11-1.9-14.1-5.5c-3.7-3.8-5-10.2-5-18.7v-39.1h-11.1v-9.9h11.1v-17.2L607.2,100.7z"/>
	<path class="st0" d="M646.9,159.4c0.3,17.6,11.5,24.9,24.6,24.9c9.3,0,15-1.6,19.8-3.7l2.2,9.3c-4.6,2.1-12.4,4.4-23.8,4.4
		c-22.1,0-35.2-14.5-35.2-36.1s12.7-38.6,33.6-38.6c23.4,0,29.6,20.6,29.6,33.8c0,2.7-0.3,4.7-0.4,6.1H646.9z M685.1,150.1
		c0.1-8.3-3.4-21.2-18.1-21.2c-13.2,0-19,12.1-20,21.2H685.1z"/>
	<path class="st0" d="M712,179.6c3.8,2.5,10.7,5.2,17.2,5.2c9.5,0,13.9-4.7,13.9-10.7c0-6.2-3.7-9.6-13.3-13.2
		c-12.9-4.6-19-11.7-19-20.3c0-11.5,9.3-21,24.7-21c7.3,0,13.6,2.1,17.6,4.4l-3.3,9.5c-2.8-1.8-8-4.1-14.7-4.1c-7.7,0-12,4.4-12,9.8
		c0,5.9,4.3,8.6,13.6,12.1c12.4,4.7,18.8,11,18.8,21.6c0,12.6-9.8,21.5-26.8,21.5c-7.8,0-15.1-1.9-20.1-4.9L712,179.6z"/>
</g>
</svg>
