<?xml version="1.0" encoding="utf-8"?>
<!-- Generator: Adobe Illustrator 25.3.0, SVG Export Plug-In . SVG Version: 6.00 Build 0)  -->
<svg version="1.1" id="Capa_1" xmlns="http://www.w3.org/2000/svg" xmlns:xlink="http://www.w3.org/1999/xlink" x="0px" y="0px"
	 viewBox="0 0 1030 281" style="enable-background:new 0 0 1030 281;" xml:space="preserve">
<style type="text/css">
	.st0{fill:#DBDBDB;}
</style>
<g>
	<g>
		<path class="st0" d="M269.8,93.1h53.7v10.8h-40.9v33.2h37.8v10.7h-37.8v45.2h-12.9V93.1z"/>
		<path class="st0" d="M374.4,192.9l-1-9H373c-4,5.6-11.7,10.7-21.9,10.7c-14.5,0-21.9-10.2-21.9-20.6c0-17.3,15.4-26.8,43.1-26.6
			v-1.5c0-5.9-1.6-16.6-16.3-16.6c-6.7,0-13.6,2.1-18.7,5.3l-3-8.6c5.9-3.8,14.5-6.4,23.5-6.4c21.9,0,27.2,15,27.2,29.3v26.8
			c0,6.2,0.3,12.3,1.2,17.2H374.4z M372.5,156.3c-14.2-0.3-30.4,2.2-30.4,16.1c0,8.4,5.6,12.4,12.3,12.4c9.3,0,15.2-5.9,17.3-12
			c0.4-1.3,0.7-2.8,0.7-4.1V156.3z"/>
		<path class="st0" d="M457.2,190.2c-3.4,1.8-11,4.1-20.6,4.1c-21.6,0-35.7-14.7-35.7-36.6c0-22.1,15.1-38.1,38.5-38.1
			c7.7,0,14.5,1.9,18.1,3.7l-3,10.1c-3.1-1.8-8-3.4-15.1-3.4c-16.4,0-25.3,12.1-25.3,27.1c0,16.6,10.7,26.8,24.9,26.8
			c7.4,0,12.3-1.9,16-3.6L457.2,190.2z"/>
		<path class="st0" d="M490.1,100.7v20.6h18.7v9.9h-18.7v38.6c0,8.9,2.5,13.9,9.8,13.9c3.4,0,5.9-0.4,7.6-0.9l0.6,9.8
			c-2.5,1-6.5,1.8-11.5,1.8c-6.1,0-11-1.9-14.1-5.5c-3.7-3.8-5-10.2-5-18.7v-39.1h-11.1v-9.9h11.1v-17.2L490.1,100.7z"/>
		<path class="st0" d="M583.3,173.4c0,7.4,0.1,13.9,0.6,19.5h-11.5l-0.7-11.7h-0.3c-3.4,5.8-11,13.3-23.7,13.3
			c-11.3,0-24.7-6.2-24.7-31.4v-41.9h13v39.7c0,13.6,4.1,22.8,16,22.8c8.7,0,14.8-6.1,17.2-11.8c0.7-1.9,1.2-4.3,1.2-6.7v-44h13
			V173.4z"/>
		<path class="st0" d="M605,143.6c0-8.4-0.1-15.7-0.6-22.4h11.4l0.4,14.1h0.6c3.3-9.6,11.1-15.7,19.8-15.7c1.5,0,2.5,0.1,3.7,0.4
			v12.3c-1.3-0.3-2.7-0.4-4.4-0.4c-9.2,0-15.7,7-17.5,16.7c-0.3,1.8-0.6,3.8-0.6,6.1v38.2H605V143.6z"/>
		<path class="st0" d="M692.3,192.9l-1-9h-0.4c-4,5.6-11.7,10.7-21.9,10.7c-14.5,0-21.9-10.2-21.9-20.6c0-17.3,15.4-26.8,43.1-26.6
			v-1.5c0-5.9-1.6-16.6-16.3-16.6c-6.7,0-13.6,2.1-18.7,5.3l-3-8.6c5.9-3.8,14.5-6.4,23.5-6.4c21.9,0,27.2,15,27.2,29.3v26.8
			c0,6.2,0.3,12.3,1.2,17.2H692.3z M690.4,156.3c-14.2-0.3-30.4,2.2-30.4,16.1c0,8.4,5.6,12.4,12.3,12.4c9.3,0,15.2-5.9,17.3-12
			c0.4-1.3,0.7-2.8,0.7-4.1V156.3z"/>
		<path class="st0" d="M722.2,179.6c3.8,2.5,10.7,5.2,17.2,5.2c9.5,0,13.9-4.7,13.9-10.7c0-6.2-3.7-9.6-13.3-13.2
			c-12.9-4.6-19-11.7-19-20.3c0-11.5,9.3-21,24.7-21c7.3,0,13.6,2.1,17.6,4.4l-3.3,9.5c-2.8-1.8-8-4.1-14.7-4.1
			c-7.7,0-12,4.4-12,9.8c0,5.9,4.3,8.6,13.6,12.1c12.4,4.7,18.8,11,18.8,21.6c0,12.6-9.8,21.5-26.8,21.5c-7.8,0-15.1-1.9-20.1-4.9
			L722.2,179.6z"/>
	</g>
</g>
</svg>
