<?xml version="1.0" encoding="utf-8"?>
<!-- Generator: Adobe Illustrator 25.3.0, SVG Export Plug-In . SVG Version: 6.00 Build 0)  -->
<svg version="1.1" id="Capa_1" xmlns="http://www.w3.org/2000/svg" xmlns:xlink="http://www.w3.org/1999/xlink" x="0px" y="0px"
	 viewBox="0 0 1030 281" style="enable-background:new 0 0 1030 281;" xml:space="preserve">
<style type="text/css">
	.st0{fill:#9E9E9E;}
	.st1{fill:#231F20;}
</style>
<path class="st0" d="M1030.2,280.7V29.8c0-16.4-13.3-29.8-29.8-29.8h-970C14,0,0.7,13.3,0.7,29.8v250.9H1030.2z"/>
<g>
	<g>
		<path class="st1" d="M114,94.3c6.2-1,14.4-1.9,24.7-1.9c12.7,0,22.1,3,28,8.3c5.5,4.7,8.7,12,8.7,20.9c0,9-2.7,16.1-7.7,21.3
			c-6.8,7.3-17.9,11-30.5,11c-3.8,0-7.4-0.1-10.4-0.9v40H114V94.3z M126.9,142.4c2.8,0.7,6.4,1,10.7,1c15.5,0,25-7.6,25-21.3
			c0-13.2-9.3-19.5-23.5-19.5c-5.6,0-9.9,0.4-12.1,1V142.4z"/>
		<path class="st1" d="M189.9,143.6c0-8.4-0.1-15.7-0.6-22.4h11.4l0.4,14.1h0.6c3.3-9.6,11.1-15.7,19.8-15.7c1.5,0,2.5,0.1,3.7,0.4
			v12.3c-1.3-0.3-2.7-0.4-4.4-0.4c-9.2,0-15.7,7-17.5,16.7c-0.3,1.8-0.6,3.8-0.6,6.1v38.2h-12.9V143.6z"/>
		<path class="st1" d="M244.1,159.4c0.3,17.6,11.5,24.9,24.6,24.9c9.3,0,15-1.6,19.8-3.7l2.2,9.3c-4.6,2.1-12.4,4.4-23.8,4.4
			c-22.1,0-35.2-14.5-35.2-36.1s12.7-38.6,33.6-38.6c23.4,0,29.6,20.6,29.6,33.8c0,2.7-0.3,4.7-0.4,6.1H244.1z M282.3,150.1
			c0.1-8.3-3.4-21.2-18.1-21.2c-13.2,0-19,12.1-20,21.2H282.3z"/>
		<path class="st1" d="M309.3,179.6c3.8,2.5,10.7,5.2,17.2,5.2c9.5,0,13.9-4.7,13.9-10.7c0-6.2-3.7-9.6-13.3-13.2
			c-12.9-4.6-19-11.7-19-20.3c0-11.5,9.3-21,24.7-21c7.3,0,13.6,2.1,17.6,4.4l-3.3,9.5c-2.8-1.8-8-4.1-14.7-4.1
			c-7.7,0-12,4.4-12,9.8c0,5.9,4.3,8.6,13.6,12.1c12.4,4.7,18.8,11,18.8,21.6c0,12.6-9.8,21.5-26.8,21.5c-7.8,0-15.1-1.9-20.1-4.9
			L309.3,179.6z"/>
		<path class="st1" d="M429.7,173.4c0,7.4,0.1,13.9,0.6,19.5h-11.5l-0.7-11.7h-0.3c-3.4,5.8-11,13.3-23.7,13.3
			c-11.3,0-24.7-6.2-24.7-31.4v-41.9h13v39.7c0,13.6,4.1,22.8,16,22.8c8.7,0,14.8-6.1,17.2-11.8c0.7-1.9,1.2-4.3,1.2-6.7v-44h13
			V173.4z"/>
		<path class="st1" d="M451.3,144.6c0-9.2-0.3-16.6-0.6-23.4h11.7l0.6,12.3h0.3c5.3-8.7,13.8-13.9,25.5-13.9
			c17.3,0,30.4,14.7,30.4,36.4c0,25.8-15.7,38.5-32.6,38.5c-9.5,0-17.8-4.1-22.1-11.3h-0.3v38.9h-12.9V144.6z M464.2,163.7
			c0,1.9,0.3,3.7,0.6,5.3c2.4,9,10.2,15.2,19.5,15.2c13.8,0,21.8-11.3,21.8-27.7c0-14.4-7.6-26.6-21.3-26.6
			c-8.9,0-17.2,6.4-19.7,16.1c-0.4,1.6-0.9,3.6-0.9,5.3V163.7z"/>
		<path class="st1" d="M595.5,173.4c0,7.4,0.1,13.9,0.6,19.5h-11.5l-0.7-11.7h-0.3c-3.4,5.8-11,13.3-23.7,13.3
			c-11.3,0-24.7-6.2-24.7-31.4v-41.9h13v39.7c0,13.6,4.1,22.8,16,22.8c8.7,0,14.8-6.1,17.2-11.8c0.7-1.9,1.2-4.3,1.2-6.7v-44h13
			V173.4z"/>
		<path class="st1" d="M624.4,159.4c0.3,17.6,11.5,24.9,24.6,24.9c9.3,0,15-1.6,19.8-3.7l2.2,9.3c-4.6,2.1-12.4,4.4-23.8,4.4
			c-22.1,0-35.2-14.5-35.2-36.1s12.7-38.6,33.6-38.6c23.4,0,29.6,20.6,29.6,33.8c0,2.7-0.3,4.7-0.4,6.1H624.4z M662.6,150.1
			c0.1-8.3-3.4-21.2-18.1-21.2c-13.2,0-19,12.1-20,21.2H662.6z"/>
		<path class="st1" d="M689.5,179.6c3.8,2.5,10.7,5.2,17.2,5.2c9.5,0,13.9-4.7,13.9-10.7c0-6.2-3.7-9.6-13.3-13.2
			c-12.9-4.6-19-11.7-19-20.3c0-11.5,9.3-21,24.7-21c7.3,0,13.6,2.1,17.6,4.4l-3.3,9.5c-2.8-1.8-8-4.1-14.7-4.1
			c-7.7,0-12,4.4-12,9.8c0,5.9,4.3,8.6,13.6,12.1c12.4,4.7,18.8,11,18.8,21.6c0,12.6-9.8,21.5-26.8,21.5c-7.8,0-15.1-1.9-20.1-4.9
			L689.5,179.6z"/>
		<path class="st1" d="M765.6,100.7v20.6h18.7v9.9h-18.7v38.6c0,8.9,2.5,13.9,9.8,13.9c3.4,0,5.9-0.4,7.6-0.9l0.6,9.8
			c-2.5,1-6.5,1.8-11.5,1.8c-6.1,0-11-1.9-14.1-5.5c-3.7-3.8-5-10.2-5-18.7v-39.1h-11.1v-9.9h11.1v-17.2L765.6,100.7z"/>
		<path class="st1" d="M862.9,156.5c0,26.5-18.4,38.1-35.7,38.1c-19.4,0-34.3-14.2-34.3-36.9c0-24,15.7-38.1,35.5-38.1
			C849,119.6,862.9,134.6,862.9,156.5z M806,157.2c0,15.7,9,27.5,21.8,27.5c12.4,0,21.8-11.7,21.8-27.8c0-12.1-6.1-27.5-21.5-27.5
			C812.7,129.4,806,143.6,806,157.2z"/>
		<path class="st1" d="M877.5,179.6c3.8,2.5,10.7,5.2,17.2,5.2c9.5,0,13.9-4.7,13.9-10.7c0-6.2-3.7-9.6-13.3-13.2
			c-12.9-4.6-19-11.7-19-20.3c0-11.5,9.3-21,24.7-21c7.3,0,13.6,2.1,17.6,4.4l-3.3,9.5c-2.8-1.8-8-4.1-14.7-4.1
			c-7.7,0-12,4.4-12,9.8c0,5.9,4.3,8.6,13.6,12.1c12.4,4.7,18.8,11,18.8,21.6c0,12.6-9.8,21.5-26.8,21.5c-7.8,0-15.1-1.9-20.1-4.9
			L877.5,179.6z"/>
	</g>
</g>
</svg>
