<?xml version="1.0" encoding="utf-8"?>
<!-- Generator: Adobe Illustrator 25.3.0, SVG Export Plug-In . SVG Version: 6.00 Build 0)  -->
<svg version="1.1" id="Capa_1" xmlns="http://www.w3.org/2000/svg" xmlns:xlink="http://www.w3.org/1999/xlink" x="0px" y="0px"
	 viewBox="0 0 657 1185" style="enable-background:new 0 0 657 1185;" xml:space="preserve">
<style type="text/css">
	.st0{enable-background:new    ;}
	.st1{fill:#DBDBDB;}
	.st2{fill:#606060;}
</style>
<g class="st0">
	<path class="st1" d="M37.1,888c9.2-1.4,20.1-2.4,32.1-2.4c21.7,0,37.1,5,47.3,14.6c10.4,9.6,16.5,23.1,16.5,42.1
		c0,19.1-5.9,34.8-16.8,45.6c-10.9,11-29,16.9-51.7,16.9c-10.8,0-19.8-0.5-27.4-1.4V888z M52.2,991.7c3.8,0.7,9.4,0.9,15.3,0.9
		c32.3,0,49.8-18.1,49.8-49.8c0.2-27.7-15.4-45.2-47.3-45.2c-7.8,0-13.7,0.7-17.7,1.6V991.7z"/>
	<path class="st1" d="M222.8,980.8c0,8.7,0.2,16.4,0.7,23H210l-0.9-13.7h-0.3c-4,6.8-12.8,15.7-27.7,15.7c-13.2,0-29-7.3-29-36.9
		v-49.2h15.3v46.6c0,16,4.9,26.8,18.7,26.8c10.2,0,17.3-7.1,20.1-13.9c0.9-2.3,1.4-5,1.4-7.8v-51.7h15.3V980.8z"/>
	<path class="st1" d="M248.1,947c0-10.8-0.3-19.5-0.7-27.5h13.7l0.7,14.4h0.3c6.2-10.3,16.1-16.4,29.8-16.4
		c20.3,0,35.5,17.2,35.5,42.8c0,30.3-18.4,45.2-38.1,45.2c-11.1,0-20.8-4.9-25.8-13.2h-0.3v45.7h-15.1V947z M263.2,969.5
		c0,2.3,0.3,4.3,0.7,6.3c2.8,10.6,12,17.9,22.9,17.9c16.1,0,25.5-13.2,25.5-32.5c0-16.9-8.8-31.3-25-31.3c-10.4,0-20.1,7.5-23.1,19
		c-0.5,1.9-1,4.2-1,6.3V969.5z"/>
	<path class="st1" d="M346.8,880.2H362v123.5h-15.3V880.2z"/>
	<path class="st1" d="M404.7,895.9c0.2,5.2-3.6,9.4-9.7,9.4c-5.4,0-9.2-4.2-9.2-9.4c0-5.4,4-9.6,9.5-9.6
		C401,886.3,404.7,890.5,404.7,895.9z M387.7,1003.7v-84.2H403v84.2H387.7z"/>
	<path class="st1" d="M488.1,1000.6c-4,2.1-12.8,4.9-24.1,4.9c-25.3,0-41.8-17.2-41.8-43c0-25.9,17.7-44.7,45.1-44.7
		c9,0,17,2.3,21.2,4.3L485,934c-3.6-2.1-9.4-4-17.7-4c-19.2,0-29.7,14.3-29.7,31.8c0,19.5,12.5,31.5,29.1,31.5
		c8.7,0,14.4-2.3,18.7-4.2L488.1,1000.6z"/>
	<path class="st1" d="M552.4,1003.7l-1.2-10.6h-0.5c-4.7,6.6-13.7,12.5-25.7,12.5c-17,0-25.7-12-25.7-24.2c0-20.4,18-31.5,50.5-31.3
		v-1.7c0-7-1.9-19.5-19.1-19.5c-7.8,0-16,2.4-21.8,6.3l-3.5-10.1c6.9-4.5,17-7.5,27.6-7.5c25.7,0,31.9,17.6,31.9,34.4v31.5
		c0,7.3,0.3,14.4,1.4,20.2H552.4z M550.2,960.8c-16.6-0.3-35.5,2.6-35.5,19c0,9.9,6.6,14.6,14.4,14.6c10.9,0,17.9-7,20.3-14.1
		c0.5-1.6,0.9-3.3,0.9-4.9V960.8z"/>
	<path class="st1" d="M589.5,945.8c0-9.9-0.2-18.4-0.7-26.3h13.4l0.5,16.5h0.7c3.8-11.3,13-18.4,23.2-18.4c1.7,0,2.9,0.2,4.3,0.5
		v14.4c-1.6-0.3-3.1-0.5-5.2-0.5c-10.8,0-18.4,8.2-20.5,19.7c-0.3,2.1-0.7,4.5-0.7,7.1v44.9h-15.1V945.8z"/>
</g>
<polyline class="st1" points="88.5,422.2 88.5,591.1 418.9,591.1 418.9,419.8 418.9,256.4 329.4,165.4 88.5,165.4 88.5,419.8 "/>
<path class="st2" d="M418.9,256.4c-3-3.1-89.5-91-89.5-91v91H418.9z"/>
<rect x="125.3" y="206.7" class="st2" width="185.6" height="8.3"/>
<rect x="125.3" y="241.6" class="st2" width="185.6" height="8.3"/>
<rect x="125.3" y="276.4" class="st2" width="256.2" height="8.3"/>
<rect x="125.3" y="311.2" class="st2" width="256.2" height="8.3"/>
<rect x="125.5" y="346.1" class="st2" width="256.2" height="8.3"/>
<rect x="125.3" y="380.8" class="st2" width="256.2" height="8.3"/>
<rect x="125.3" y="415.6" class="st2" width="256.2" height="8.3"/>
<rect x="125.4" y="450.5" class="st2" width="256.2" height="8.3"/>
<rect x="125.4" y="485.5" class="st2" width="256.2" height="8.3"/>
<rect x="125.4" y="520.3" class="st2" width="256.2" height="8.3"/>
<polyline class="st2" points="241.7,551.7 241.7,720.5 572.1,720.5 572.1,549.2 572.1,385.8 482.6,294.9 241.7,294.9 241.7,549.2 
	"/>
<path class="st1" d="M572.1,385.8c-3-3.1-89.5-91-89.5-91v91H572.1z"/>
<rect x="278.5" y="336.2" class="st1" width="185.6" height="8.3"/>
<rect x="278.5" y="371" class="st1" width="185.6" height="8.3"/>
<rect x="278.5" y="405.8" class="st1" width="256.3" height="8.3"/>
<rect x="278.5" y="440.6" class="st1" width="256.3" height="8.3"/>
<rect x="278.7" y="475.5" class="st1" width="256.2" height="8.3"/>
<rect x="278.5" y="510.2" class="st1" width="256.2" height="8.3"/>
<rect x="278.5" y="545" class="st1" width="256.2" height="8.3"/>
<rect x="278.6" y="579.9" class="st1" width="256.2" height="8.3"/>
<rect x="278.6" y="614.9" class="st1" width="256.2" height="8.3"/>
<rect x="278.6" y="649.7" class="st1" width="256.2" height="8.3"/>
<path class="st1" d="M522.8,231.4c-8.7-43.4-47-76.1-92.8-76.1c-5.4,0-10.7,0.5-15.9,1.3v31.4c5.1-1.3,10.4-2,15.9-2
	c28.8,0,53.1,19.1,61.2,45.4h-16l33.2,57.7l33.2-57.7H522.8z"/>
</svg>
