<?xml version="1.0" encoding="utf-8"?>
<!-- Generator: Adobe Illustrator 25.3.0, SVG Export Plug-In . SVG Version: 6.00 Build 0)  -->
<svg version="1.1" id="Capa_1" xmlns="http://www.w3.org/2000/svg" xmlns:xlink="http://www.w3.org/1999/xlink" x="0px" y="0px"
	 viewBox="0 0 657 1185" style="enable-background:new 0 0 657 1185;" xml:space="preserve">
<style type="text/css">
	.st0{fill:#847970;}
	.st1{fill:none;}
	.st2{enable-background:new    ;}
	.st3{fill:#231F20;}
	.st4{fill:#DBDBDB;}
	.st5{fill:#494543;}
</style>
<path class="st0" d="M657.26-0.2H69.46C30.95-0.2-0.27,33.2-0.27,74.39v1035.73c0,41.2,31.22,74.59,69.72,74.59h587.8V-0.2H657.26z"
	/>
<rect x="3.35" y="431.73" class="st1" width="650.3" height="572.04"/>
<g class="st2">
	<path class="st3" d="M37.08,888.04c9.19-1.39,20.11-2.44,32.08-2.44c21.67,0,37.11,5.04,47.34,14.61
		c10.4,9.57,16.47,23.13,16.47,42.1c0,19.13-5.9,34.79-16.82,45.58c-10.92,10.96-28.96,16.87-51.67,16.87
		c-10.75,0-19.77-0.52-27.4-1.39V888.04z M52.17,991.72c3.81,0.7,9.36,0.87,15.26,0.87c32.25,0,49.77-18.09,49.77-49.75
		c0.17-27.66-15.43-45.23-47.34-45.23c-7.8,0-13.7,0.7-17.69,1.57V991.72z"/>
	<path class="st3" d="M222.79,980.76c0,8.7,0.17,16.35,0.69,22.96h-13.52l-0.87-13.74h-0.35c-3.99,6.78-12.83,15.66-27.74,15.66
		c-13.18,0-28.96-7.31-28.96-36.88v-49.23h15.26v46.62c0,16,4.85,26.79,18.73,26.79c10.23,0,17.34-7.13,20.11-13.92
		c0.87-2.26,1.39-5.04,1.39-7.83v-51.66h15.26V980.76z"/>
	<path class="st3" d="M248.11,947.01c0-10.79-0.35-19.48-0.69-27.48h13.7l0.69,14.44h0.35c6.24-10.26,16.13-16.35,29.83-16.35
		c20.29,0,35.55,17.22,35.55,42.79c0,30.27-18.38,45.23-38.15,45.23c-11.1,0-20.81-4.87-25.84-13.22h-0.35v45.75h-15.09V947.01z
		 M263.19,969.45c0,2.26,0.35,4.35,0.69,6.26c2.77,10.61,11.96,17.92,22.89,17.92c16.13,0,25.49-13.22,25.49-32.53
		c0-16.87-8.84-31.31-24.97-31.31c-10.4,0-20.11,7.48-23.06,18.96c-0.52,1.91-1.04,4.17-1.04,6.26V969.45z"/>
	<path class="st3" d="M346.77,880.22h15.26v123.5h-15.26V880.22z"/>
	<path class="st3" d="M404.69,895.87c0.17,5.22-3.64,9.39-9.71,9.39c-5.38,0-9.19-4.17-9.19-9.39c0-5.39,3.99-9.57,9.54-9.57
		C401.05,886.31,404.69,890.48,404.69,895.87z M387.7,1003.72v-84.19h15.26v84.19H387.7z"/>
	<path class="st3" d="M488.09,1000.59c-3.99,2.09-12.83,4.87-24.1,4.87c-25.32,0-41.79-17.22-41.79-42.97
		c0-25.92,17.69-44.71,45.08-44.71c9.02,0,16.99,2.26,21.16,4.35l-3.47,11.83c-3.64-2.09-9.36-4-17.69-4
		c-19.25,0-29.65,14.26-29.65,31.83c0,19.48,12.48,31.49,29.13,31.49c8.67,0,14.39-2.26,18.73-4.18L488.09,1000.59z"/>
	<path class="st3" d="M552.43,1003.72l-1.21-10.61h-0.52c-4.68,6.61-13.7,12.52-25.66,12.52c-16.99,0-25.66-12-25.66-24.18
		c0-20.35,18.03-31.49,50.46-31.31v-1.74c0-6.96-1.91-19.48-19.07-19.48c-7.8,0-15.95,2.44-21.85,6.26l-3.47-10.09
		c6.94-4.52,16.99-7.48,27.57-7.48c25.66,0,31.91,17.57,31.91,34.44v31.48c0,7.31,0.35,14.44,1.39,20.18H552.43z M550.17,960.76
		c-16.65-0.35-35.55,2.61-35.55,18.96c0,9.92,6.59,14.61,14.39,14.61c10.92,0,17.86-6.96,20.29-14.09c0.52-1.57,0.87-3.3,0.87-4.87
		V960.76z"/>
	<path class="st3" d="M589.54,945.8c0-9.92-0.17-18.44-0.69-26.27h13.35l0.52,16.53h0.69c3.81-11.31,13-18.44,23.24-18.44
		c1.73,0,2.95,0.17,4.33,0.52v14.44c-1.56-0.35-3.12-0.52-5.2-0.52c-10.75,0-18.38,8.17-20.46,19.66c-0.35,2.09-0.69,4.52-0.69,7.13
		v44.88h-15.09V945.8z"/>
</g>
<polyline class="st3" points="88.5,422.24 88.5,591.12 418.88,591.12 418.88,419.78 418.88,256.37 329.41,165.41 88.5,165.41 
	88.5,419.78 "/>
<path class="st4" d="M418.88,256.37c-3.05-3.1-89.47-90.96-89.47-90.96v90.96H418.88z"/>
<rect x="125.33" y="206.72" class="st4" width="185.61" height="8.34"/>
<rect x="125.33" y="241.55" class="st4" width="185.61" height="8.34"/>
<rect x="125.33" y="276.38" class="st4" width="256.25" height="8.34"/>
<rect x="125.33" y="311.2" class="st4" width="256.25" height="8.34"/>
<rect x="125.49" y="346.06" class="st4" width="256.25" height="8.34"/>
<rect x="125.27" y="380.77" class="st4" width="256.25" height="8.34"/>
<rect x="125.27" y="415.59" class="st4" width="256.25" height="8.34"/>
<rect x="125.43" y="450.45" class="st4" width="256.25" height="8.34"/>
<rect x="125.45" y="485.46" class="st4" width="256.25" height="8.34"/>
<rect x="125.45" y="520.28" class="st4" width="256.25" height="8.34"/>
<polyline class="st4" points="241.69,551.68 241.69,720.55 572.07,720.55 572.07,549.21 572.07,385.8 482.6,294.85 241.69,294.85 
	241.69,549.21 "/>
<path class="st5" d="M572.07,385.8c-3.05-3.1-89.47-90.96-89.47-90.96v90.96H572.07z"/>
<rect x="278.52" y="336.16" class="st5" width="185.61" height="8.34"/>
<rect x="278.52" y="370.98" class="st5" width="185.61" height="8.34"/>
<rect x="278.52" y="405.81" class="st5" width="256.25" height="8.34"/>
<rect x="278.52" y="440.64" class="st5" width="256.25" height="8.34"/>
<rect x="278.69" y="475.49" class="st5" width="256.25" height="8.34"/>
<rect x="278.46" y="510.2" class="st5" width="256.25" height="8.34"/>
<rect x="278.46" y="545.03" class="st5" width="256.25" height="8.34"/>
<rect x="278.62" y="579.89" class="st5" width="256.25" height="8.34"/>
<rect x="278.64" y="614.89" class="st5" width="256.25" height="8.34"/>
<rect x="278.64" y="649.71" class="st5" width="256.25" height="8.34"/>
<path class="st4" d="M522.8,231.43c-8.74-43.37-47.01-76.12-92.78-76.12c-5.42,0-10.73,0.47-15.89,1.34v31.43
	c5.08-1.31,10.39-2.01,15.89-2.01c28.76,0,53.13,19.13,61.19,45.36h-15.95l33.2,57.68l33.19-57.68H522.8z"/>
</svg>
