<?xml version="1.0" encoding="utf-8"?>
<!-- Generator: Adobe Illustrator 25.3.0, SVG Export Plug-In . SVG Version: 6.00 Build 0)  -->
<svg version="1.1" id="Capa_1" xmlns="http://www.w3.org/2000/svg" xmlns:xlink="http://www.w3.org/1999/xlink" x="0px" y="0px"
	 viewBox="0 0 661 1185" style="enable-background:new 0 0 661 1185;" xml:space="preserve">
<style type="text/css">
	.st0{enable-background:new    ;}
	.st1{fill:#DBDBDB;}
	.st2{fill:#606060;}
</style>
<g class="st0">
	<path class="st1" d="M194.6,952.8h-45.5v42h50.8v12.6H134V890.9h63.3v12.6h-48.2v36.8h45.5V952.8z"/>
	<path class="st1" d="M290.9,884.6v101.2c0,7.4,0.2,15.9,0.7,21.6h-13.7l-0.7-14.5h-0.3c-4.7,9.3-15,16.4-28.7,16.4
		c-20.3,0-36-17.1-36-42.6c-0.2-27.8,17.2-45,37.7-45c12.9,0,21.6,6.1,25.4,12.8h0.3v-50H290.9z M275.6,957.8c0-1.9-0.2-4.5-0.7-6.4
		c-2.3-9.7-10.6-17.6-22.1-17.6c-15.8,0-25.2,13.8-25.2,32.3c0,17,8.3,31,24.9,31c10.3,0,19.6-6.7,22.4-18.2
		c0.5-2.1,0.7-4.2,0.7-6.6V957.8z"/>
	<path class="st1" d="M333.4,900.2c0.2,5.2-3.7,9.3-9.7,9.3c-5.4,0-9.2-4.2-9.2-9.3c0-5.4,4-9.5,9.6-9.5
		C329.7,890.7,333.4,894.9,333.4,900.2z M316.3,1007.5v-83.7h15.3v83.7H316.3z"/>
	<path class="st1" d="M375.4,899.7v24h21.9v11.6h-21.9v45.1c0,10.4,3,16.3,11.5,16.3c4,0,7-0.5,8.9-1l0.7,11.4
		c-3,1.2-7.6,2.1-13.6,2.1c-7.1,0-12.9-2.2-16.5-6.4c-4.3-4.5-5.9-11.9-5.9-21.8v-45.7h-13v-11.6h13v-20.1L375.4,899.7z"/>
	<path class="st1" d="M461.1,1007.5l-1.2-10.6h-0.5c-4.7,6.6-13.7,12.5-25.7,12.5c-17,0-25.7-11.9-25.7-24
		c0-20.2,18.1-31.3,50.6-31.1v-1.7c0-6.9-1.9-19.4-19.1-19.4c-7.8,0-16,2.4-21.9,6.2l-3.5-10c7-4.5,17-7.4,27.6-7.4
		c25.7,0,32,17.5,32,34.2v31.3c0,7.3,0.3,14.4,1.4,20.1H461.1z M458.9,964.7c-16.7-0.3-35.6,2.6-35.6,18.9c0,9.9,6.6,14.5,14.4,14.5
		c11,0,17.9-6.9,20.3-14c0.5-1.6,0.9-3.3,0.9-4.8V964.7z"/>
	<path class="st1" d="M498.3,949.9c0-9.9-0.2-18.3-0.7-26.1H511l0.5,16.4h0.7c3.8-11.2,13-18.3,23.3-18.3c1.7,0,3,0.2,4.3,0.5v14.4
		c-1.6-0.3-3.1-0.5-5.2-0.5c-10.8,0-18.4,8.1-20.5,19.5c-0.3,2.1-0.7,4.5-0.7,7.1v44.6h-15.1V949.9z"/>
</g>
<polyline class="st2" points="143.3,511.7 143.3,691.6 498,691.6 498,509.1 498,335.1 401.9,238.2 143.3,238.2 143.3,509.1 "/>
<path class="st1" d="M498,335.1c-3.3-3.3-96-96.9-96-96.9v96.9H498z"/>
<rect x="182.9" y="282.2" class="st1" width="199.2" height="8.9"/>
<rect x="182.9" y="319.3" class="st1" width="199.2" height="8.9"/>
<rect x="182.9" y="356.4" class="st1" width="275.1" height="8.9"/>
<rect x="182.9" y="393.5" class="st1" width="275.1" height="8.9"/>
<rect x="183.1" y="430.6" class="st1" width="275.1" height="8.9"/>
<rect x="182.8" y="467.6" class="st1" width="275.1" height="8.9"/>
<rect x="182.8" y="504.7" class="st1" width="275.1" height="8.9"/>
<rect x="183" y="541.8" class="st1" width="275.1" height="8.9"/>
<path class="st1" d="M424.1,669.2l2-65.3l61.5,32.7l-53,37.8c-1.2,1-2.7,1.5-4.3,1.5C426.8,675.7,424,672.8,424.1,669.2L424.1,669.2
	L424.1,669.2z M430,591.6l65.8,34.9l75.8-141.3l-65.8-34.9L430,591.6L430,591.6z M511.9,439l10.1-18.8c4.8-9,12.9-15.2,22.1-18
	s19.3-2.1,28.4,2.7c9,4.8,15.3,12.9,18.1,22c2.8,9.1,2.1,19.2-2.8,28.2l-10.1,18.8L511.9,439z"/>
</svg>
