<?xml version="1.0" encoding="utf-8"?>
<!-- Generator: Adobe Illustrator 25.3.0, SVG Export Plug-In . SVG Version: 6.00 Build 0)  -->
<svg version="1.1" id="Capa_1" xmlns="http://www.w3.org/2000/svg" xmlns:xlink="http://www.w3.org/1999/xlink" x="0px" y="0px"
	 viewBox="0 0 654 1185" style="enable-background:new 0 0 654 1185;" xml:space="preserve">
<style type="text/css">
	.st0{fill:#847970;}
	.st1{fill:none;}
	.st2{enable-background:new    ;}
	.st3{fill:#231F20;}
	.st4{fill:#DBDBDB;}
</style>
<path class="st0" d="M657.8-0.1H69.5C30.9-0.1-0.3,33.3-0.3,74.5V1110c0,41.2,31.2,74.6,69.8,74.6h588.3V-0.1z"/>
<rect x="3.3" y="431" class="st1" width="650.9" height="573.2"/>
<g class="st2">
	<path class="st3" d="M108,949.6H62.5v42h50.7v12.6H47.4V887.8h63.2v12.6H62.5v36.8H108V949.6z"/>
	<path class="st3" d="M132.3,881.6h15.3v122.6h-15.3V881.6z"/>
	<path class="st3" d="M190.3,897.1c0.2,5.2-3.6,9.3-9.7,9.3c-5.4,0-9.2-4.1-9.2-9.3c0-5.4,4-9.5,9.5-9.5
		C186.6,887.6,190.3,891.7,190.3,897.1z M173.2,1004.2v-83.6h15.3v83.6H173.2z"/>
	<path class="st3" d="M213.9,943.2c0-8.6-0.2-15.7-0.7-22.6h13.4l0.7,13.5h0.5c4.7-7.9,12.5-15.4,26.4-15.4
		c11.5,0,20.1,6.9,23.8,16.8h0.3c2.6-4.7,5.9-8.3,9.4-10.9c5-3.8,10.6-5.9,18.6-5.9c11.1,0,27.6,7.3,27.6,36.3v49.2h-14.9v-47.3
		c0-16.1-5.9-25.7-18.2-25.7c-8.7,0-15.4,6.4-18.1,13.8c-0.7,2.1-1.2,4.8-1.2,7.6v51.6h-14.9v-50.1c0-13.3-5.9-23-17.5-23
		c-9.5,0-16.5,7.6-18.9,15.2c-0.9,2.2-1.2,4.8-1.2,7.4v50.4h-14.9V943.2z"/>
	<path class="st3" d="M375.6,897.1c0.2,5.2-3.6,9.3-9.7,9.3c-5.4,0-9.2-4.1-9.2-9.3c0-5.4,4-9.5,9.5-9.5
		C372,887.6,375.6,891.7,375.6,897.1z M358.6,1004.2v-83.6h15.3v83.6H358.6z"/>
	<path class="st3" d="M399.2,943.2c0-8.6-0.2-15.7-0.7-22.6h13.5l0.9,13.8h0.3c4.2-7.9,13.9-15.7,27.8-15.7
		c11.6,0,29.7,6.9,29.7,35.6v49.9h-15.3V956c0-13.5-5-24.7-19.4-24.7c-10.1,0-17.9,7.1-20.5,15.5c-0.7,1.9-1,4.5-1,7.1v50.3h-15.3
		V943.2z"/>
	<path class="st3" d="M542.1,1004.2l-1.2-10.5h-0.5c-4.7,6.6-13.7,12.4-25.7,12.4c-17,0-25.7-11.9-25.7-24
		c0-20.2,18.1-31.3,50.5-31.1v-1.7c0-6.9-1.9-19.3-19.1-19.3c-7.8,0-16,2.4-21.9,6.2l-3.5-10c6.9-4.5,17-7.4,27.6-7.4
		c25.7,0,31.9,17.4,31.9,34.2v31.3c0,7.3,0.3,14.3,1.4,20H542.1z M539.8,961.5c-16.7-0.3-35.6,2.6-35.6,18.8
		c0,9.8,6.6,14.5,14.4,14.5c10.9,0,17.9-6.9,20.3-14c0.5-1.6,0.9-3.3,0.9-4.8V961.5z"/>
	<path class="st3" d="M579.2,946.7c0-9.8-0.2-18.3-0.7-26.1h13.4l0.5,16.4h0.7c3.8-11.2,13-18.3,23.3-18.3c1.7,0,3,0.2,4.3,0.5v14.3
		c-1.6-0.3-3.1-0.5-5.2-0.5c-10.8,0-18.4,8.1-20.5,19.5c-0.3,2.1-0.7,4.5-0.7,7.1v44.6h-15.1V946.7z"/>
</g>
<polyline class="st4" points="140.7,525.6 140.7,719.9 524,719.9 524,522.8 524,334.7 420.2,230 140.7,230 140.7,522.8 "/>
<path class="st3" d="M524,334.7C520.5,331.1,420.2,230,420.2,230v104.7H524z"/>
<path class="st3" d="M412.6,441.3l-17.5,180.4H271.4l-17.6-180.4H412.6z M340.5,466.5h-13.8V597h13.8V466.5z M377.8,466.5H364V597
	h13.8V466.5z M304.9,466.5h-13.8V597h13.8V466.5z"/>
<path class="st3" d="M379.6,401l-4-26l-92.3,14.1l4,26l-48.2,7.4l2.5,16.4L430.4,410l-2.5-16.4L379.6,401z M365,389.4l1.4,9.2
	l-67.1,10.2l-1.4-9.2L365,389.4z"/>
</svg>
