<?xml version="1.0" encoding="utf-8"?>
<!-- Generator: Adobe Illustrator 25.3.0, SVG Export Plug-In . SVG Version: 6.00 Build 0)  -->
<svg version="1.1" id="Capa_1" xmlns="http://www.w3.org/2000/svg" xmlns:xlink="http://www.w3.org/1999/xlink" x="0px" y="0px"
	 viewBox="0 0 660 1184" style="enable-background:new 0 0 660 1184;" xml:space="preserve">
<style type="text/css">
	.st0{fill:#847970;}
	.st1{enable-background:new    ;}
	.st2{fill:#231F20;}
	.st3{fill:#DBDBDB;}
	.st4{fill-rule:evenodd;clip-rule:evenodd;fill:#231F20;}
</style>
<path class="st0" d="M659.6-0.8H71.1C32.5-0.8,1.3,32.6,1.3,73.8v1035.8c0,41.2,31.3,74.6,69.8,74.6h588.5V-0.8z"/>
<g class="st1">
	<path class="st2" d="M105.8,1005.2V888.7h16.5l37.5,58.9c8.7,13.6,15.5,25.9,21,37.8l0.3-0.2c-1.4-15.5-1.7-29.7-1.7-47.9v-48.7
		h14.2v116.4h-15.3l-37.2-59.1c-8.2-13-16-26.3-21.9-38.9l-0.5,0.2c0.9,14.7,1.2,28.7,1.2,48v49.8H105.8z"/>
	<path class="st2" d="M289.8,982.4c0,8.6,0.2,16.2,0.7,22.8H277l-0.9-13.6h-0.3c-4,6.7-12.8,15.5-27.8,15.5c-13.2,0-29-7.3-29-36.6
		v-48.9h15.3v46.3c0,15.9,4.9,26.6,18.8,26.6c10.2,0,17.4-7.1,20.1-13.8c0.9-2.2,1.4-5,1.4-7.8v-51.3h15.3V982.4z"/>
	<path class="st2" d="M323.7,966.1c0.3,20.6,13.5,29,28.8,29c10.9,0,17.5-1.9,23.3-4.3l2.6,10.9c-5.4,2.4-14.6,5.2-28,5.2
		c-25.9,0-41.3-16.9-41.3-42.2s14.9-45.1,39.4-45.1c27.4,0,34.7,24,34.7,39.4c0,3.1-0.3,5.5-0.5,7.1H323.7z M368.5,955.2
		c0.2-9.7-4-24.7-21.2-24.7c-15.5,0-22.2,14.2-23.4,24.7H368.5z"/>
	<path class="st2" d="M408.1,921.5l16.5,47c2.8,7.6,5,14.5,6.8,21.4h0.5c1.9-6.9,4.3-13.8,7.1-21.4l16.3-47h16l-33,83.6h-14.6
		l-31.9-83.6H408.1z"/>
	<path class="st2" d="M560,962.7c0,30.9-21.5,44.4-41.8,44.4c-22.7,0-40.3-16.6-40.3-43c0-28,18.4-44.4,41.7-44.4
		C543.7,919.6,560,937.1,560,962.7z M493.3,963.5c0,18.3,10.6,32.1,25.5,32.1c14.6,0,25.5-13.6,25.5-32.5c0-14.2-7.1-32.1-25.2-32.1
		C501.1,931,493.3,947.6,493.3,963.5z"/>
</g>
<polyline class="st3" points="137.4,521.3 137.4,715.5 520.3,715.5 520.3,518.5 520.3,330.6 416.6,226 137.4,226 137.4,518.5 "/>
<path class="st2" d="M520.3,330.6C516.8,327,416.6,226,416.6,226v104.6H520.3z"/>
<path class="st4" d="M406.4,453.9v40.7c-31.6,0-49.6,0-62,0v61.7h-40.9v-61.7h-62v-40.7h62v-61.7h40.9v61.7H406.4z"/>
</svg>
